<svg width="60" height="60" viewBox="0 0 60 60" fill="none" xmlns="http://www.w3.org/2000/svg">
<rect width="60" height="60" rx="30" fill="#416CBB"/>
<path d="M13.5038 39V22.2H19.8638C21.2718 22.2 22.4398 22.424 23.3678 22.872C24.3118 23.32 25.0238 23.936 25.5038 24.72C25.9838 25.504 26.2238 26.408 26.2238 27.432C26.2238 28.584 25.9118 29.584 25.2878 30.432C24.6638 31.264 23.7278 31.864 22.4798 32.232L26.7038 39H23.5358L19.8158 32.568H16.3838V39H13.5038ZM16.3838 30.168H19.3838C20.8558 30.168 21.8798 29.928 22.4558 29.448C23.0478 28.968 23.3438 28.296 23.3438 27.432C23.3438 26.568 23.0478 25.896 22.4558 25.416C21.8798 24.936 20.8558 24.696 19.3838 24.696H16.3838V30.168ZM29.9334 39V22.2H32.9094L38.2614 32.16L43.6134 22.2H46.4934V39H43.6134V27.24L39.1734 35.52H37.2534L32.8134 27.24V39H29.9334Z" fill="white"/>
</svg>
